<svg xmlns="http://www.w3.org/2000/svg" version="1.1" xmlns:xlink="http://www.w3.org/1999/xlink" xmlns:svgjs="http://svgjs.dev/svgjs" width="1000" height="1000"><g clip-path="url(#SvgjsClipPath1230)"><rect width="1000" height="1000" fill="#ffffff"></rect><g transform="matrix(3.5335689045936394,0,0,3.5335689045936394,139.57597173144876,5.684341886080802e-14)"><svg xmlns="http://www.w3.org/2000/svg" version="1.1" xmlns:xlink="http://www.w3.org/1999/xlink" xmlns:svgjs="http://svgjs.dev/svgjs" width="204.094px" height="283.465px"><svg version="1.1" id="Ebene_1" xmlns:x="&amp;ns_extend;" xmlns:i="&amp;ns_ai;" xmlns:graph="&amp;ns_graphs;" xmlns="http://www.w3.org/2000/svg" xmlns:xlink="http://www.w3.org/1999/xlink" x="0px" y="0px" width="204.094px" height="283.465px" viewBox="0 0 204.094 283.465" enable-background="new 0 0 204.094 283.465" xml:space="preserve">
<metadata>
</metadata>
<g>
	<g>
		<g transform="matrix(0.9781 0.2079 -0.2079 0.9781 61.1114 146.402)">
			<path fill="#7D8BC5" d="M31.773-64.746c1.574,0,2.851-1.276,2.851-2.852c-0.001-1.574-1.277-2.851-2.851-2.851
				c-1.575,0-2.851,1.276-2.852,2.851C28.922-66.022,30.199-64.746,31.773-64.746z"></path>
		</g>
		<g transform="matrix(-0.1045 -0.9945 -0.9945 0.1045 144.0982 94.4383)">
			<path fill="#E175AC" d="M9.604-21.062c0-7.223-5.841-13.082-13.058-13.111l0-0.001c-0.009,0-0.018,0.001-0.027,0.001
				c-0.009,0.001-0.018,0-0.027-0.001l0,0.002c-7.216,0.029-13.058,5.886-13.058,13.109c-0.001,9.078,9.522,14.832,12.231,24.45
				c0.027,0.149,0.107,19.872,0.107,19.872c-1.21,0.33-2.104,1.426-2.104,2.74c0,1.575,1.276,2.851,2.851,2.852
				c1.575,0,2.851-1.276,2.851-2.852c0-1.314-0.894-2.409-2.104-2.74c0,0,0.08-19.723,0.107-19.871
				C0.082-6.231,9.604-11.985,9.604-21.062z M3.183-21.063c0,3.686-2.981,6.675-6.664,6.689c-3.683-0.015-6.664-3.003-6.664-6.689
				c0-3.686,2.981-6.674,6.664-6.689C0.202-27.738,3.183-24.75,3.183-21.063z"></path>
		</g>
		<g transform="matrix(0.5 -0.866 -0.866 -0.5 132.4427 116.5928)">
			<path fill="#F08493" d="M6.403-14.042c0-4.815-3.894-8.721-8.705-8.74l0,0c-0.006,0-0.012,0-0.018,0c-0.006,0-0.012,0-0.018,0
				l0,0.001c-4.811,0.019-8.705,3.924-8.705,8.74c-0.001,5.88,5.977,9.676,7.976,15.764l0,12.507c-1.21,0.33-2.104,1.425-2.104,2.74
				c0,1.575,1.276,2.851,2.851,2.851c1.575,0,2.851-1.276,2.851-2.851c0-1.313-0.894-2.41-2.104-2.74l0-12.507
				C0.424-4.368,6.403-8.162,6.403-14.042z M2.122-14.042c0,2.457-1.988,4.45-4.443,4.46c-2.455-0.01-4.443-2.002-4.443-4.46
				c0-2.458,1.988-4.45,4.443-4.46C0.135-18.492,2.123-16.5,2.122-14.042z"></path>
		</g>
		<g transform="matrix(0.9135 -0.4067 -0.4067 -0.9135 122.5961 139.4124)">
			<path fill="#EC656B" d="M7.759-17.015c0-5.835-4.719-10.567-10.548-10.589l0-0.002c-0.007,0.001-0.014,0.002-0.023,0.002
				c-0.006,0.001-0.013,0-0.022-0.001l0,0.001c-5.829,0.023-10.549,4.755-10.549,10.59C-13.382-9.737-5.812-5.1-3.559,2.563
				l0,20.902c-1.21,0.33-2.103,1.425-2.104,2.74c0,1.575,1.276,2.851,2.85,2.851c1.575,0,2.852-1.276,2.852-2.851
				c0-1.314-0.895-2.41-2.105-2.74l0.001-20.903C0.189-5.099,7.758-9.737,7.759-17.015z M2.572-17.015
				c0,2.979-2.408,5.392-5.383,5.405c-2.975-0.013-5.384-2.426-5.384-5.405c0.001-2.978,2.409-5.391,5.384-5.403
				C0.163-22.406,2.571-19.993,2.572-17.015z"></path>
		</g>
		<g transform="matrix(0.9976 0.0698 -0.0698 0.9976 107.8419 72.8986)">
			<path fill="#7D8BC5" d="M9.39-57L9.39-57c-0.008-0.002-0.016-0.003-0.025-0.004c-0.008-0.001-0.016-0.003-0.024-0.004l0,0.001
				C2.734-57.909-3.364-53.3-4.293-46.691c-1.167,8.307,6.805,14.796,8.047,23.945c0.036,0.876,0.419,0.906,0.639,0.942l0,0.002
				c0.008,0,0.016,0.001,0.026,0.002c0.008,0.002,0.016,0.003,0.024,0.005l0-0.002c0.221,0.026,0.598,0.102,0.874-0.73
				c3.716-8.452,13.167-12.492,14.335-20.799C20.581-49.935,15.99-56.047,9.39-57z M13.777-44.151
				c-0.475,3.373-3.587,5.724-6.958,5.264c-3.368-0.487-5.712-3.605-5.238-6.978c0.475-3.373,3.587-5.724,6.958-5.264
				C11.908-50.643,14.251-47.524,13.777-44.151z M-1.505-14.666c-3.097,0.012-5.603,2.526-5.603,5.626
				c0,3.896,4.086,6.365,5.249,10.492c0.073,0.401,0.251,0.39,0.355,0.392l0,0.001c0.004,0,0.008,0,0.011-0.001
				c0.004,0,0.008,0,0.011,0.001l0-0.001C-1.378,1.843-1.2,1.852-1.127,1.453C0.035-2.675,4.122-5.143,4.121-9.039
				c0-3.1-2.507-5.613-5.604-5.626l0-0.001c-0.004,0-0.008,0-0.011,0C-1.498-14.666-1.501-14.665-1.505-14.666L-1.505-14.666z
				 M-1.494-11.909c1.58,0.006,2.859,1.289,2.86,2.871c-0.001,1.582-1.28,2.864-2.86,2.871c-1.58-0.006-2.86-1.289-2.861-2.871
				C-4.353-10.621-3.075-11.903-1.494-11.909z M-3.441,13.669c-0.219,1.559,0.867,3.001,2.427,3.22c1.559,0.219,3-0.867,3.22-2.427
				c0.219-1.559-0.867-3.001-2.427-3.22C-1.78,11.024-3.222,12.111-3.441,13.669z"></path>
		</g>
		<g transform="matrix(0.9781 0.2079 0.2079 -0.9781 99.3381 135.3404)">
			<path fill="#FBBD35" d="M9.156-20.08c0-6.885-5.569-12.47-12.449-12.498l0-0.001c-0.009,0-0.017,0.001-0.025,0.001
				c-0.009,0-0.017-0.001-0.025,0l0,0.001c-6.88,0.027-12.449,5.612-12.449,12.498c0,8.654,9.077,14.14,11.66,23.309
				c0.017,0.094,0.067,11.43,0.067,11.43c-1.21,0.33-2.104,1.425-2.104,2.74c0,1.575,1.276,2.851,2.851,2.851
				c1.575,0,2.851-1.276,2.851-2.851c0-1.314-0.894-2.41-2.104-2.74c0,0,0.05-11.337,0.067-11.43
				C0.078-5.939,9.156-11.425,9.156-20.08z M3.035-20.079c0,3.514-2.842,6.363-6.353,6.377c-3.512-0.014-6.354-2.863-6.354-6.377
				c0-3.514,2.842-6.363,6.353-6.377C0.192-26.443,3.035-23.595,3.035-20.079z"></path>
		</g>
		<g transform="matrix(-0.6691 -0.7431 -0.7431 0.6691 122.0818 80.6395)">
			<path fill="#9B77B4" d="M9.22-20.222c0-6.934-5.608-12.558-12.536-12.586l0,0c-0.009,0-0.018,0-0.027,0
				c-0.009,0-0.017-0.001-0.026,0l-0.001,0c-6.927,0.028-12.535,5.652-12.536,12.586c0,8.717,9.141,14.239,11.742,23.472
				c0.034,0.183,0.131,6.958,0.131,6.958c-1.21,0.33-2.104,1.425-2.104,2.74c0,1.575,1.276,2.851,2.851,2.851
				c1.575,0,2.851-1.276,2.851-2.851c0-1.314-0.894-2.41-2.104-2.74c0,0,0.011-6.938,0.015-6.958
				C0.079-5.983,9.221-11.506,9.22-20.222z M3.056-20.222c0,3.539-2.862,6.408-6.397,6.422c-3.535-0.014-6.397-2.883-6.396-6.422
				c-0.001-3.54,2.861-6.408,6.397-6.422C0.194-26.63,3.056-23.761,3.056-20.222z"></path>
		</g>
		<g transform="matrix(1 -4.440892e-16 4.440892e-16 1 -211.6898 -304.7583)">
			<path fill="#BAD580" d="M321.432,407.55c0.294-3.734-2.495-6.999-6.229-7.293c-3.734-0.294-7,2.495-7.293,6.229
				c-0.081,1.031,0.092,2.017,0.436,2.924c-29.699,23.809-42.027,59.038-43.114,94.039h4.627
				c1.104-34.057,13.046-67.794,41.498-90.534c0.833,0.469,1.767,0.784,2.782,0.863C317.874,414.071,321.138,411.283,321.432,407.55
				z"></path>
		</g>
		<g transform="matrix(-0.9135 0.4067 -0.4067 -0.9135 109.1622 42.7151)">
			<path fill="#5394D0" d="M32.72-36.166c0-1.575-1.276-2.851-2.851-2.851c-1.575,0-2.851,1.276-2.851,2.851
				c0,1.308,0.903,2.356,2.104,2.69l0,17.268c-1.998,6.089-7.976,9.884-7.976,15.764c0,4.816,3.894,8.721,8.705,8.74l0,0.001
				c0.006,0,0.012,0,0.018,0c0.006,0,0.012,0,0.017,0l0-0.001c4.811-0.019,8.705-3.924,8.705-8.74c0-5.88-5.978-9.675-7.976-15.764
				l-0.001-17.268C31.818-33.809,32.72-34.857,32.72-36.166z M29.87-4.903c2.455,0.01,4.443,2.002,4.443,4.46
				c0,2.457-1.988,4.45-4.443,4.46c-2.456-0.01-4.443-2.002-4.443-4.46C25.427-2.9,27.414-4.894,29.87-4.903z"></path>
		</g>
		<g transform="matrix(-0.5 0.866 0.866 0.5 191.5494 118.907)">
			<path fill="#55BFC6" d="M45.641-150.15c0-8.668-7.01-15.697-15.67-15.732v-0.002c-0.011,0-0.021,0.001-0.032,0.001
				c-0.011,0-0.021-0.001-0.032-0.001l0,0.002c-8.66,0.035-15.67,7.064-15.669,15.732c0,10.895,11.426,17.799,14.677,29.34
				c0.074,0.405,0.208,17.375,0.208,17.375c-1.201,0.333-2.104,1.382-2.104,2.69c0,1.575,1.277,2.851,2.851,2.851
				c1.575,0,2.851-1.276,2.851-2.851c0-1.308-0.903-2.356-2.104-2.69c0,0,0.279-16.999,0.347-17.375
				C34.245-132.457,45.641-139.333,45.641-150.15z M37.936-150.15c0,4.423-3.578,8.01-7.997,8.027
				c-4.419-0.017-7.997-3.604-7.997-8.027c0-4.423,3.578-8.01,7.997-8.027C34.359-158.159,37.936-154.573,37.936-150.15z"></path>
		</g>
		<g transform="matrix(0.1045 0.9945 0.9945 -0.1045 184.4183 63.6663)">
			<path fill="#6BBE98" d="M40.336-137.284c0-5.779-4.673-10.465-10.446-10.488l0-0.001c-0.007,0-0.014,0.001-0.021,0.001
				c-0.007,0-0.014-0.001-0.021-0.001l0,0.001c-5.773,0.023-10.446,4.709-10.446,10.488c0,7.201,7.445,11.704,9.685,19.28
				l0.035,14.57c-1.202,0.333-2.104,1.382-2.104,2.69c0,1.575,1.276,2.851,2.851,2.851s2.851-1.276,2.852-2.851
				c0-1.308-0.904-2.356-2.104-2.69l0-14.482C32.856-125.493,40.337-130.083,40.336-137.284z M35.2-137.284
				c0.001,2.949-2.385,5.34-5.331,5.352c-2.946-0.012-5.331-2.403-5.331-5.352c0-2.949,2.385-5.34,5.331-5.352
				C32.816-142.624,35.201-140.233,35.2-137.284z"></path>
		</g>
		
	</g>
</g>
</svg></svg></g></g><defs><clipPath id="SvgjsClipPath1230"><rect width="1000" height="1000" x="0" y="0" rx="500" ry="500"></rect></clipPath></defs></svg>